<?xml version="1.0" encoding="UTF-8"?>
<svg version="1.1" xmlns="http://www.w3.org/2000/svg" width="512" height="512">
<path d="M0 0 C0.97259766 -0.020625 1.94519531 -0.04125 2.94726562 -0.0625 C15.96097136 -0.13204552 28.27411396 4.63629864 37.94140625 13.4921875 C51.01895837 27.6726657 53.42527531 42.24321438 52.76220703 60.85351562 C48.38884547 135.2327406 16.53369736 211.06333235 -29.4375 269.25 C-30.37529297 270.4565625 -30.37529297 270.4565625 -31.33203125 271.6875 C-65.23524476 314.77427237 -65.23524476 314.77427237 -85.46679688 328.64086914 C-89.95720053 331.94547912 -91.93554637 334.47682585 -92.8828125 340.03125 C-93.13897335 342.26764122 -93.36403451 344.50775213 -93.5625 346.75 C-93.85221546 349.1795696 -94.15187358 351.60797208 -94.4609375 354.03515625 C-94.61401367 355.2483252 -94.76708984 356.46149414 -94.92480469 357.71142578 C-102.47571323 409.82707739 -136.51182977 458.15914425 -177.7902832 489.33691406 C-185.10933544 494.78829411 -192.6446867 499.73391024 -200.59667969 504.21240234 C-201.82387357 504.90412303 -203.04594651 505.60500852 -204.26269531 506.31494141 C-212.12441551 510.87439934 -219.17856001 514.02839396 -228.4375 512.25 C-232.91620656 510.09062362 -235.61948188 507.32047061 -238.4375 503.25 C-241.06155377 495.3778387 -239.30079153 488.66061099 -235.8125 481.4375 C-225.06093107 457.5015777 -222.04172087 433.25152681 -221.4375 407.25 C-222.77554688 407.683125 -222.77554688 407.683125 -224.140625 408.125 C-225.31109375 408.49625 -226.4815625 408.8675 -227.6875 409.25 C-228.84765625 409.62125 -230.0078125 409.9925 -231.203125 410.375 C-234.4375 411.25 -234.4375 411.25 -238.4375 411.25 C-238.69619873 411.94931641 -238.95489746 412.64863281 -239.22143555 413.36914062 C-240.55668632 416.53235265 -242.15701496 419.38207964 -243.89453125 422.34375 C-244.40378395 423.21416931 -244.40378395 423.21416931 -244.92332458 424.10217285 C-246.02815473 425.987203 -247.13855888 427.86886116 -248.25 429.75 C-248.62821899 430.39195312 -249.00643799 431.03390625 -249.39611816 431.6953125 C-254.43623021 440.24758459 -259.5099904 448.78007436 -264.6875 457.25 C-265.45477417 458.5194043 -265.45477417 458.5194043 -266.23754883 459.81445312 C-273.20297704 471.09280764 -273.20297704 471.09280764 -279.4375 473.25 C-282.2421875 473.5859375 -282.2421875 473.5859375 -285.3125 473.625 C-286.32054687 473.65335937 -287.32859375 473.68171875 -288.3671875 473.7109375 C-294.66464972 472.76551696 -298.96848842 468.00427928 -303.2734375 463.609375 C-303.79765289 463.08232971 -304.32186829 462.55528442 -304.86196899 462.01226807 C-306.51694834 460.34619309 -308.16479289 458.67326417 -309.8125 457 C-310.94093981 455.86151665 -312.06984181 454.72349122 -313.19921875 453.5859375 C-315.95068208 450.81255488 -318.69577383 448.03300766 -321.4375 445.25 C-323.16954628 446.3373349 -324.8996284 447.42779886 -326.62890625 448.51953125 C-327.59256104 449.12643799 -328.55621582 449.73334473 -329.54907227 450.35864258 C-332.24479244 452.12381409 -334.81375708 453.98408877 -337.375 455.9375 C-359.51691903 472.22762614 -388.05898061 489.66858444 -416.4375 487.25 C-423.70194913 485.69827413 -428.31542938 481.27456475 -432.4375 475.25 C-433.8125 472.3125 -433.8125 472.3125 -434.4375 469.25 C-434.705625 467.97125 -434.97375 466.6925 -435.25 465.375 C-437.62204388 437.37558009 -415.95497424 407.75047569 -400.4375 386.25 C-400.02387207 385.67411133 -399.61024414 385.09822266 -399.18408203 384.50488281 C-396.95500212 381.4051949 -394.70740688 378.31990272 -392.4375 375.25 C-398.29736097 368.13861243 -404.85879731 361.80172168 -411.4453125 355.36914062 C-412.31414062 354.51126953 -413.18296875 353.65339844 -414.078125 352.76953125 C-414.86735352 351.99714111 -415.65658203 351.22475098 -416.46972656 350.42895508 C-419.97403978 346.54855862 -420.74587203 343.62781906 -420.8125 338.4375 C-420.84085937 337.44105469 -420.86921875 336.44460938 -420.8984375 335.41796875 C-420.09789364 329.91592576 -417.92279649 326.43320229 -413.671875 323.046875 C-412.52080126 322.34720606 -411.35823305 321.66625183 -410.1875 321 C-409.20233398 320.41085815 -409.20233398 320.41085815 -408.19726562 319.80981445 C-406.61064425 318.86443529 -405.0189789 317.92749724 -403.42382812 316.99658203 C-399.78684072 314.86945581 -396.16673624 312.71469429 -392.546875 310.55859375 C-388.2712137 308.01292664 -383.99445409 305.46925869 -379.70996094 302.93847656 C-379.03278015 302.53829315 -378.35559937 302.13810974 -377.65789795 301.72579956 C-376.33979294 300.94689375 -375.02147951 300.16834051 -373.70294189 299.39016724 C-370.29601216 297.37349557 -366.92708435 295.31166779 -363.59375 293.17578125 C-360.4375 291.25 -360.4375 291.25 -358.4375 291.25 C-358.334375 290.280625 -358.23125 289.31125 -358.125 288.3125 C-357.69627402 285.23139978 -356.90378354 282.43726597 -355.89453125 279.49609375 C-355.62229736 278.69743896 -355.35006348 277.89878418 -355.06958008 277.07592773 C-354.86099365 276.47337158 -354.65240723 275.87081543 -354.4375 275.25 C-381.80613565 274.56481783 -406.47506409 278.42678345 -431.60327148 289.7097168 C-438.10013098 292.5151944 -443.88770339 293.47877575 -450.6875 291.125 C-454.51834349 288.51306126 -457.33911815 285.44676371 -459.4375 281.25 C-460.46336038 272.26425637 -458.69785527 266.02134308 -454.3125 258.25 C-453.7755249 257.26451172 -453.2385498 256.27902344 -452.68530273 255.26367188 C-438.80447376 230.3576585 -420.09553336 207.65399664 -397.4375 190.25 C-396.59662842 189.60248779 -396.59662842 189.60248779 -395.73876953 188.94189453 C-368.75689938 168.29317727 -335.59773674 150.969872 -301.3984375 147.44921875 C-286.16961763 146.41063691 -286.16961763 146.41063691 -274.1875 138 C-272.94944336 136.37916961 -271.79590411 134.73290464 -270.67211914 133.03100586 C-265.97613071 126.25678486 -259.8217267 120.47778623 -254 114.6875 C-253.28779297 113.97142578 -252.57558594 113.25535156 -251.84179688 112.51757812 C-247.20411925 107.88832499 -242.40970919 103.51548616 -237.4375 99.25 C-236.34281088 98.28882894 -235.24901363 97.32664085 -234.15625 96.36328125 C-171.91193121 41.96907852 -83.99166692 0.44352035 0 0 Z " fill="#E5EDFE" transform="translate(459.4375,-0.25)"/>
<path d="M0 0 C5.14249007 4.30317612 9.9521007 8.8134383 14.67944336 13.56591797 C15.77825333 14.6645089 15.77825333 14.6645089 16.89926147 15.78529358 C19.29850275 18.18522657 21.69419129 20.58867255 24.08984375 22.9921875 C25.76113873 24.6653493 27.43265592 26.33828915 29.10438538 28.01101685 C33.48774351 32.39817939 37.86808925 36.78833757 42.24780273 41.17913818 C46.72392418 45.6655185 51.20290426 50.14904292 55.68164062 54.6328125 C64.45721843 63.41909099 73.22961471 72.2085386 82 81 C80.74085686 83.53189046 79.48022435 86.06302129 78.21875 88.59375 C77.69039551 89.65674316 77.69039551 89.65674316 77.15136719 90.74121094 C67.21913421 110.65144756 54.78999034 129.5457323 41 147 C40.06220703 148.2065625 40.06220703 148.2065625 39.10546875 149.4375 C5.20225524 192.52427237 5.20225524 192.52427237 -15.02929688 206.39086914 C-19.51970053 209.69547912 -21.49804637 212.22682585 -22.4453125 217.78125 C-22.70147335 220.01764122 -22.92653451 222.25775213 -23.125 224.5 C-23.41471546 226.9295696 -23.71437358 229.35797208 -24.0234375 231.78515625 C-24.17651367 232.9983252 -24.32958984 234.21149414 -24.48730469 235.46142578 C-32.03821323 287.57707739 -66.07432977 335.90914425 -107.3527832 367.08691406 C-114.67183544 372.53829411 -122.2071867 377.48391024 -130.15917969 381.96240234 C-131.38637357 382.65412303 -132.60844651 383.35500852 -133.82519531 384.06494141 C-141.68691551 388.62439934 -148.74106001 391.77839396 -158 390 C-162.47870656 387.84062362 -165.18198188 385.07047061 -168 381 C-170.62405377 373.1278387 -168.86329153 366.41061099 -165.375 359.1875 C-154.62343107 335.2515777 -151.60422087 311.00152681 -151 285 C-151.86882812 285.30035156 -152.73765625 285.60070312 -153.6328125 285.91015625 C-154.78523438 286.29042969 -155.93765625 286.67070312 -157.125 287.0625 C-158.26195312 287.44535156 -159.39890625 287.82820313 -160.5703125 288.22265625 C-164.36303875 289.08228327 -166.26888257 289.03879351 -170 288 C-172.18436706 286.29516272 -174.00706477 284.67783579 -175.92944336 282.7175293 C-176.76709732 281.89301773 -176.76709732 281.89301773 -177.62167358 281.05184937 C-179.45714541 279.2383184 -181.27379818 277.40718746 -183.08984375 275.57421875 C-184.36088758 274.30654358 -185.63267281 273.03961138 -186.90516663 271.77339172 C-189.56518682 269.1207349 -192.21597244 266.45926451 -194.8605957 263.79125977 C-198.25577496 260.36753588 -201.67298661 256.96682586 -205.09737301 253.57234478 C-207.72545634 250.96229872 -210.3415514 248.34049856 -212.95413399 245.71494484 C-214.21000454 244.45573345 -215.46961485 243.20024071 -216.73295403 241.94852257 C-218.49310878 240.20102327 -220.23650645 238.43837608 -221.97631836 236.6706543 C-222.76706001 235.89509438 -222.76706001 235.89509438 -223.57377625 235.10386658 C-224.99668884 233.63822937 -224.99668884 233.63822937 -227 231 C-226.68797243 227.53793864 -225.21422854 225.8422924 -222.80467224 223.44390869 C-222.1217511 222.75686356 -221.43882996 222.06981842 -220.73521423 221.36195374 C-219.98139969 220.61892502 -219.22758514 219.8758963 -218.45092773 219.11035156 C-217.66074249 218.31972824 -216.87055725 217.52910492 -216.056427 216.71452332 C-213.4391964 214.09938504 -210.81149491 211.49503685 -208.18359375 208.890625 C-206.36833053 207.08095612 -204.55372792 205.27062437 -202.73976135 203.45965576 C-198.44933575 199.17951967 -194.15229778 194.90613327 -189.85199076 190.63593364 C-184.95618523 185.77366304 -180.06889802 180.90286864 -175.18230903 176.03133821 C-165.13099156 166.01137636 -155.06901963 156.00217061 -145 146 C-146.51986404 142.86823366 -148.24945394 140.18367025 -150.3125 137.375 C-153.78099799 132.44570306 -156.63229742 127.54368983 -159 122 C-159.39445312 121.09378906 -159.78890625 120.18757813 -160.1953125 119.25390625 C-166.15673268 103.22477298 -164.34544796 84.45287192 -157.48706055 69.08935547 C-149.48265649 52.14607327 -135.09154308 39.41573393 -117.3984375 33.06640625 C-99.45362734 27.40105078 -81.21449366 29.2762249 -64.58569336 37.79467773 C-59.88971842 40.32525086 -55.74561962 43.23850367 -51.796875 46.84765625 C-50.09701286 48.19696664 -50.09701286 48.19696664 -48.17326355 47.83531189 C-45.23873438 46.70740124 -43.64780217 45.01451003 -41.4309082 42.78735352 C-40.08480217 41.44574913 -40.08480217 41.44574913 -38.71150208 40.07704163 C-37.741027 39.09456171 -36.77079242 38.11184419 -35.80078125 37.12890625 C-34.80056662 36.12563315 -33.79975941 35.12295049 -32.79838562 34.12083435 C-30.70334853 32.02119816 -28.61331434 29.91675146 -26.52709961 27.80834961 C-23.85049697 25.10342852 -21.16525935 22.40729365 -18.47669697 19.71426487 C-16.41132523 17.64474047 -14.34880031 15.57239992 -12.28731346 13.49900627 C-11.29777922 12.50376873 -10.30777112 11.50900212 -9.31728554 10.51471138 C-7.93586549 9.12643094 -6.55829105 7.73432706 -5.1809082 6.34204102 C-4.39577347 5.55007828 -3.61063873 4.75811554 -2.80171204 3.94215393 C-0.9439984 2.1216993 -0.9439984 2.1216993 0 0 Z " fill="#D9E1F1" transform="translate(389,122)"/>
<path d="M0 0 C0.97259766 -0.020625 1.94519531 -0.04125 2.94726562 -0.0625 C15.96097136 -0.13204552 28.27411396 4.63629864 37.94140625 13.4921875 C51.01895837 27.6726657 53.42527531 42.24321438 52.76220703 60.85351562 C49.9780378 108.20481441 36.10712606 162.39950348 11.5625 203.25 C6.76682556 199.24888292 2.24049921 195.07026939 -2.16368103 190.64407349 C-3.12207841 189.68695774 -3.12207841 189.68695774 -4.09983736 188.71050632 C-6.2225012 186.58947875 -8.34159063 184.46491703 -10.46069336 182.34033203 C-11.98858514 180.81215795 -13.51669761 179.28420448 -15.04501343 177.75645447 C-19.18100639 173.62074782 -23.31391397 169.48197036 -27.44626689 165.34262705 C-31.7699661 161.01266664 -36.09650692 156.68554749 -40.42274475 152.35812378 C-48.60914895 144.16861442 -56.79300118 135.97655979 -64.97593552 127.78358352 C-74.29437809 118.4539545 -83.61566829 109.12717278 -92.93719661 99.80062699 C-112.10713057 80.62024711 -131.27349269 61.43630134 -150.4375 42.25 C-147.53159539 39.154121 -144.31447565 37.51561686 -140.5 35.75 C-139.76837646 35.41033203 -139.03675293 35.07066406 -138.28295898 34.72070312 C-100.76860693 17.65039875 -61.29436989 6.54563406 -20.4375 1.25 C-19.67123291 1.146875 -18.90496582 1.04375 -18.11547852 0.9375 C-12.07897883 0.18503705 -6.07918024 0.03210128 0 0 Z " fill="#E45538" transform="translate(459.4375,-0.25)"/>
<path d="M0 0 C4.0307834 1.19794306 6.72994485 4.46238764 9.60717773 7.38012695 C10.1556839 7.92834106 10.70419006 8.47655518 11.26931763 9.04138184 C13.07885826 10.85231397 14.8812103 12.67022791 16.68359375 14.48828125 C17.94341478 15.75183554 19.20368042 17.01494668 20.46437073 18.27763367 C23.78276928 21.60366468 27.09512419 24.93565176 30.40625 28.2689209 C33.76529219 31.6483515 37.12992992 35.02220036 40.49414062 38.39648438 C45.93490997 43.85481945 51.37228201 49.31651076 56.80503845 54.78282166 C59.86454612 57.86072534 62.93066964 60.93189479 66 64 C67.83128352 65.83595508 69.66227392 67.67219866 71.49291992 69.50878906 C76.80287028 74.83501024 82.11530971 80.15874128 87.42920971 85.48102188 C90.6382898 88.69534474 93.84641755 91.91060691 97.05249023 95.12792969 C100.16185207 98.2481281 103.27362526 101.36590255 106.38710976 104.481987 C107.57255351 105.66928062 108.75711572 106.85745508 109.94078636 108.04651642 C111.5899745 109.7029271 113.2422284 111.35621894 114.89526367 113.00878906 C115.38515778 113.50227844 115.87505188 113.99576782 116.37979126 114.50421143 C118.94459814 117.07753846 118.94459814 117.07753846 122 119 C121.41712607 123.26272209 119.92697954 126.15944297 117.67578125 129.8046875 C117.33759872 130.35725723 116.9994162 130.90982697 116.65098572 131.47914124 C115.54525234 133.28223689 114.4291583 135.07865347 113.3125 136.875 C112.54263141 138.12402201 111.77343232 139.37345691 111.00488281 140.62329102 C109.82929143 142.5344904 108.65297744 144.44521295 107.47360229 146.3540802 C104.92669491 150.47838939 102.41794189 154.62284283 99.93359375 158.78515625 C98.99809692 160.3467749 98.99809692 160.3467749 98.04370117 161.93994141 C96.87615744 163.8910918 95.71330645 165.84506048 94.5559082 167.80224609 C87.32726077 179.81071966 87.32726077 179.81071966 81 182 C78.1953125 182.3359375 78.1953125 182.3359375 75.125 182.375 C74.11695313 182.40335938 73.10890625 182.43171875 72.0703125 182.4609375 C65.77285028 181.51551696 61.46901158 176.75427928 57.1640625 172.359375 C56.63984711 171.83232971 56.11563171 171.30528442 55.57553101 170.76226807 C53.92055166 169.09619309 52.27270711 167.42326417 50.625 165.75 C49.49656019 164.61151665 48.36765819 163.47349122 47.23828125 162.3359375 C44.48681792 159.56255488 41.74172617 156.78300766 39 154 C37.26795372 155.0873349 35.5378716 156.17779886 33.80859375 157.26953125 C32.84493896 157.87643799 31.88128418 158.48334473 30.88842773 159.10864258 C28.19270756 160.87381409 25.62374292 162.73408877 23.0625 164.6875 C0.92058097 180.97762614 -27.62148061 198.41858444 -56 196 C-63.26444913 194.44827413 -67.87792938 190.02456475 -72 184 C-73.375 181.0625 -73.375 181.0625 -74 178 C-74.268125 176.72125 -74.53625 175.4425 -74.8125 174.125 C-77.18454388 146.12558009 -55.51747424 116.50047569 -40 95 C-39.58637207 94.42411133 -39.17274414 93.84822266 -38.74658203 93.25488281 C-36.51750212 90.1551949 -34.26990688 87.06990272 -32 84 C-37.85986097 76.88861243 -44.42129731 70.55172168 -51.0078125 64.11914062 C-51.87664063 63.26126953 -52.74546875 62.40339844 -53.640625 61.51953125 C-54.42985352 60.74714111 -55.21908203 59.97475098 -56.03222656 59.17895508 C-59.53653978 55.29855862 -60.30837203 52.37781906 -60.375 47.1875 C-60.40335938 46.19105469 -60.43171875 45.19460938 -60.4609375 44.16796875 C-59.66039364 38.66592576 -57.48529649 35.18320229 -53.234375 31.796875 C-52.08330126 31.09720606 -50.92073305 30.41625183 -49.75 29.75 C-48.76483398 29.16085815 -48.76483398 29.16085815 -47.75976562 28.55981445 C-46.17314425 27.61443529 -44.5814789 26.67749724 -42.98632812 25.74658203 C-39.34934072 23.61945581 -35.72923624 21.46469429 -32.109375 19.30859375 C-27.8337137 16.76292664 -23.55695409 14.21925869 -19.27246094 11.68847656 C-18.59544128 11.28813202 -17.91842163 10.88778748 -17.22088623 10.47531128 C-15.90206175 9.69649201 -14.58214005 8.9195273 -13.26104736 8.14456177 C-9.85145636 6.13621285 -6.54762577 4.0324525 -3.28125 1.80078125 C-1.65703125 0.90939453 -1.65703125 0.90939453 0 0 Z " fill="#E4563A" transform="translate(99,291)"/>
<path d="M0 0 C13.56082284 11.77335365 21.95748202 28.59863853 23.34765625 46.48046875 C23.85082634 67.59173547 16.68453772 84.67683136 2.4375 100 C-11.40953678 113.2982213 -28.70512458 118.57897829 -47.5612793 118.33642578 C-65.54232869 117.68638201 -80.36738615 110.23188139 -93.12890625 97.65234375 C-105.98751105 83.81775377 -111.85032313 67.33782503 -111.43701172 48.57861328 C-110.61302298 29.68024816 -102.83848285 13.55506761 -88.9375 0.8125 C-62.59611762 -21.22449448 -26.6522387 -21.91458846 0 0 Z " fill="#4596E6" transform="translate(336.9375,168.1875)"/>
<path d="M0 0 C-1.34377872 3.15561519 -3.21638921 5.55606055 -5.42578125 8.15869141 C-33.55697327 41.47443936 -54.32406128 81.79531487 -69.07714844 122.61938477 C-69.93299241 124.82714524 -70.90220282 126.90379093 -72 129 C-72.98673706 129.02187378 -72.98673706 129.02187378 -73.9934082 129.04418945 C-100.84871632 129.70512103 -125.47468963 133.37305922 -150.16577148 144.4597168 C-156.66263098 147.2651944 -162.45020339 148.22877575 -169.25 145.875 C-173.08084349 143.26306126 -175.90161815 140.19676371 -178 136 C-179.02586038 127.01425637 -177.26035527 120.77134308 -172.875 113 C-172.06953735 111.52176758 -172.06953735 111.52176758 -171.24780273 110.01367188 C-157.36697376 85.1076585 -138.65803336 62.40399664 -116 45 C-115.43941895 44.5683252 -114.87883789 44.13665039 -114.30126953 43.69189453 C-82.63827213 19.46079872 -40.72110531 -0.97470731 0 0 Z " fill="#E55639" transform="translate(178,145)"/>
<path d="M0 0 C-0.95131206 53.18699263 -28.98068669 103.02000055 -66.30078125 139.48828125 C-78.91217709 151.22363223 -93.15271646 161.51089501 -108.15917969 169.96240234 C-109.38637357 170.65412303 -110.60844651 171.35500852 -111.82519531 172.06494141 C-119.68691551 176.62439934 -126.74106001 179.77839396 -136 178 C-140.47870656 175.84062362 -143.18198188 173.07047061 -146 169 C-148.62405377 161.1278387 -146.86329153 154.41061099 -143.375 147.1875 C-132.46411932 122.89690634 -129.58475233 98.37846854 -129 72 C-123.73377161 69.88428762 -118.46090553 67.7885763 -113.171875 65.73046875 C-75.92059796 51.07370409 -42.06649241 31.73859731 -10.40625 7.21875 C-9.80707764 6.7554126 -9.20790527 6.2920752 -8.59057617 5.81469727 C-7.42460582 4.91160256 -6.26062956 4.00592615 -5.09887695 3.09741211 C-1.10979494 0 -1.10979494 0 0 0 Z " fill="#CF4529" transform="translate(367,334)"/>
<path d="M0 0 C0.99 0 1.98 0 3 0 C15.87394123 14.57652743 17.09370808 30.39894034 16 49 C11.73999992 95.6589963 -0.67824777 147.52044035 -25 188 C-30.05754767 183.75677128 -34.82968416 179.3329214 -39.51171875 174.68115234 C-40.58367744 173.62145988 -40.58367744 173.62145988 -41.67729187 172.5403595 C-44.01703507 170.22523012 -46.35279708 167.9061492 -48.6875 165.5859375 C-49.48770569 164.79105549 -50.28791138 163.99617348 -51.11236572 163.17720413 C-55.33544838 158.98072968 -59.55493301 154.78067149 -63.77197266 150.578125 C-67.26474631 147.09876213 -70.76467139 143.62683839 -74.27099609 140.16113281 C-78.51109214 135.97014242 -82.73898074 131.76720802 -86.9581604 127.55516434 C-88.56796927 125.95209138 -90.18204798 124.35329468 -91.80038452 122.75883102 C-94.05320963 120.53739539 -96.28999128 118.3009529 -98.5234375 116.06005859 C-99.19863937 115.40126205 -99.87384125 114.74246552 -100.56950378 114.06370544 C-101.47361748 113.14711403 -101.47361748 113.14711403 -102.39599609 112.21200562 C-103.19123184 111.42173509 -103.19123184 111.42173509 -104.00253296 110.6154995 C-105 109 -105 109 -104.91423798 107.07286453 C-103.7094554 104.34124417 -102.09464285 102.72923993 -99.97619629 100.62216187 C-99.10960892 99.75289566 -98.24302155 98.88362946 -97.35017395 97.98802185 C-96.38267186 97.03273168 -95.41503108 96.07758196 -94.44726562 95.12255859 C-93.43332412 94.11110048 -92.42004978 93.09897318 -91.40739441 92.08622742 C-88.65577893 89.33802464 -85.8950885 86.59910138 -83.13284111 83.86159086 C-80.24620641 80.99742232 -77.36844684 78.12436668 -74.48986816 75.25210571 C-69.0357226 69.81245193 -63.57440085 64.38006647 -58.11011553 58.95060027 C-48.31900563 49.22141397 -38.54005757 39.48001048 -28.76381254 29.73589003 C-25.33075716 26.31468839 -21.89455215 22.89669001 -18.45571136 19.48130393 C-16.32040416 17.35979579 -14.18706179 15.23631969 -12.05416298 13.11239052 C-11.06213742 12.12544619 -10.06923666 11.13938072 -9.07541466 10.15424538 C-7.72260593 8.81307478 -6.37310901 7.46856606 -5.02380371 6.12387085 C-3.8877985 4.99509301 -3.8877985 4.99509301 -2.72884369 3.84351158 C-0.93344353 2.10491137 -0.93344353 2.10491137 0 0 Z " fill="#CF4529" transform="translate(496,15)"/>
<path d="M0 0 C3.92637147 1.5895622 6.55505654 4.29244239 9.47119141 7.26000977 C10.00500931 7.79514191 10.53882721 8.33027405 11.08882141 8.88162231 C12.84771544 10.6469942 14.59952715 12.41922965 16.3515625 14.19140625 C17.57365797 15.41977327 18.79627078 16.64762579 20.01937866 17.87498474 C23.23518542 21.10408522 26.44537517 24.33870769 29.6539917 27.57495117 C34.79574171 32.7598503 39.94425326 37.93801422 45.09598923 43.11298943 C46.89651702 44.92376094 48.69360551 46.73789542 50.49038696 48.55238342 C51.58934241 49.65816462 52.68840669 50.76383768 53.78759766 51.86938477 C54.28841354 52.37693802 54.78922943 52.88449127 55.30522156 53.40742493 C57.90037547 56.03688808 57.90037547 56.03688808 61 58 C60.41712607 62.26272209 58.92697954 65.15944297 56.67578125 68.8046875 C56.33759872 69.35725723 55.9994162 69.90982697 55.65098572 70.47914124 C54.54525234 72.28223689 53.4291583 74.07865347 52.3125 75.875 C51.54263141 77.12402201 50.77343232 78.37345691 50.00488281 79.62329102 C48.82929143 81.5344904 47.65297744 83.44521295 46.47360229 85.3540802 C43.92669491 89.47838939 41.41794189 93.62284283 38.93359375 97.78515625 C38.3099292 98.82623535 37.68626465 99.86731445 37.04370117 100.93994141 C35.87615744 102.8910918 34.71330645 104.84506048 33.5559082 106.80224609 C26.32726077 118.81071966 26.32726077 118.81071966 20 121 C17.1953125 121.3359375 17.1953125 121.3359375 14.125 121.375 C13.11695313 121.40335937 12.10890625 121.43171875 11.0703125 121.4609375 C4.87826544 120.53134265 0.68362467 115.93298454 -3.58984375 111.640625 C-4.09745743 111.1325531 -4.60507111 110.6244812 -5.12806702 110.10101318 C-6.1951014 109.03097607 -7.25972309 107.95852806 -8.32202148 106.88378906 C-9.92451216 105.26313505 -11.53476612 103.65053466 -13.14648438 102.0390625 C-21.60830436 93.54733166 -21.60830436 93.54733166 -25.3828125 89.109375 C-30.8484827 82.72017498 -36.97590354 76.92042844 -42.9375 71 C-44.20661373 69.7359115 -45.47549589 68.47159044 -46.74414062 67.20703125 C-49.8267632 64.13533276 -52.91250428 61.06679992 -56 58 C-54.41600411 54.10604884 -51.75803057 51.48847765 -48.81591797 48.58886719 C-48.28893311 48.06159027 -47.76194824 47.53431335 -47.21899414 46.99105835 C-45.48142524 45.25487928 -43.73688686 43.525886 -41.9921875 41.796875 C-40.78391678 40.59233563 -39.57608778 39.38735303 -38.36868286 38.1819458 C-35.19362923 35.01451894 -32.01261478 31.85314487 -28.83032227 28.69299316 C-25.58247924 25.46562911 -22.34030867 22.23257772 -19.09765625 19 C-12.73731018 12.66108697 -6.37065247 6.32855376 0 0 Z " fill="#CF452A" transform="translate(160,352)"/>
<path d="M0 0 C4.74190735 3.95854618 9.22496834 8.0836914 13.57788086 12.46435547 C14.19337799 13.07970657 14.80887512 13.69505768 15.44302368 14.32905579 C17.45267998 16.3394021 19.45878274 18.35325411 21.46484375 20.3671875 C22.86709544 21.77130661 24.26956981 23.17520336 25.67225647 24.57888794 C29.34541268 28.25584379 33.01555454 31.93579391 36.68505859 35.61639404 C40.43729767 39.37890237 44.19240493 43.13854579 47.94726562 46.8984375 C55.30097336 54.26283749 62.65149708 61.63040667 70 69 C66.01938731 73.01522162 62.05505248 76.33241901 57.4375 79.5625 C56.70152588 80.07844727 55.96555176 80.59439453 55.20727539 81.12597656 C32.06389946 97.12501923 4.23530243 115.49160453 -25 113 C-32.26444913 111.44827413 -36.87792938 107.02456475 -41 101 C-42.375 98.0625 -42.375 98.0625 -43 95 C-43.268125 93.72125 -43.53625 92.4425 -43.8125 91.125 C-46.56873975 58.59056221 -18.63987088 24.3008687 0 0 Z " fill="#FEDD33" transform="translate(68,374)"/>
<path d="M0 0 C1.34641782 1.15154155 2.68562911 2.31201092 4 3.5 C-0.6151234 9.03974527 -5.52736135 14.16417024 -10.63574219 19.24926758 C-11.4819664 20.09563782 -12.32819061 20.94200806 -13.20005798 21.81402588 C-15.50167997 24.11507404 -17.80549294 26.41390007 -20.11033154 28.71172547 C-22.52818137 31.12328439 -24.94316165 33.53771361 -27.35845947 35.951828 C-31.92607205 40.51634261 -36.49622521 45.07830454 -41.06731629 49.63933533 C-46.26665889 54.82748327 -51.46314831 60.01848497 -56.65940237 65.20972598 C-66.90733583 75.44765581 -77.15848833 85.68235575 -87.41195297 95.91474628 C-88.60855511 97.10924365 -89.80444979 98.30444979 -91 99.5 C-97.34788235 92.33394615 -102.28910276 85.34298916 -106 76.5 C-106.41378906 75.55125 -106.82757813 74.6025 -107.25390625 73.625 C-113.20468923 57.70095357 -111.29637805 38.8429501 -104.48706055 23.58935547 C-96.48265649 6.64607327 -82.09154308 -6.08426607 -64.3984375 -12.43359375 C-41.69765416 -19.60045737 -18.45199719 -14.65229114 0 0 Z " fill="#4DA6FE" transform="translate(336,167.5)"/>
<path d="M0 0 C4.90473901 4.11329871 9.5219528 8.38542461 14.02734375 12.9296875 C14.97801476 13.88248093 14.97801476 13.88248093 15.94789124 14.85452271 C17.94681406 16.85898716 19.94220784 18.86692214 21.9375 20.875 C23.30250133 22.24502389 24.6677336 23.61481774 26.03320312 24.984375 C29.35814211 28.32026543 32.67992353 31.65927036 36 35 C32.04725385 39.04074478 28.05055984 42.33556172 23.4375 45.5625 C22.70152588 46.07844727 21.96555176 46.59439453 21.20727539 47.12597656 C-1.78964272 63.02377277 -29.89019871 81.70707089 -59 79 C-62.36854452 78.16650116 -65.28448687 77.19408043 -68 75 C-68.6960986 73.68179328 -69.36632486 72.34932503 -70 71 C-69.5859642 70.656203 -69.17192841 70.31240601 -68.74534607 69.95819092 C-61.42367535 63.7227854 -54.70722666 56.87138663 -47.91015625 50.078125 C-46.55642277 48.72760924 -45.20261601 47.37716693 -43.84873962 46.02679443 C-41.02718859 43.21120045 -38.2076807 40.39357858 -35.3894043 37.57470703 C-31.77405311 33.95925357 -28.15183234 30.35076646 -24.52787113 26.74394608 C-21.7372923 23.96445987 -18.95124401 21.18046691 -16.16647148 18.39516449 C-14.83199719 17.06187131 -13.49589862 15.73020183 -12.15815926 14.40018463 C-10.2960677 12.54785188 -8.4403728 10.68933791 -6.58618164 8.82910156 C-5.75483452 8.0061837 -5.75483452 8.0061837 -4.9066925 7.16664124 C-2.54751689 4.78779559 -1.07499588 3.22498765 0 0 Z " fill="#FEBC33" transform="translate(102,408)"/>
</svg>
